<svg preserveAspectRatio="xMidYMid meet" data-bbox="0 23.026 180.25 180.503" viewBox="0 23.026 180.25 180.503" xmlns="http://www.w3.org/2000/svg" data-type="color" role="img" aria-label="Seedorina Logo"><defs><style>#comp-kbgakxea_r_comp-m241unx0 svg [data-color="1"] {fill: #007995;}</style></defs>
    <g>
        <path d="M175.87 32.34a7.1 7.1 0 0 0-5.68-5.67A143.86 143.86 0 0 0 2.43 194.43a7.07 7.07 0 0 0 5.67 5.67A143.87 143.87 0 0 0 178.3 58.76a144.65 144.65 0 0 0-2.43-26.42Zm-32.1 36.45L44.55 168a7.09 7.09 0 1 1-10-10l99.22-99.21a7.08 7.08 0 0 1 10 0 7.1 7.1 0 0 1 0 10Z" fill="#007995" data-color="1"></path>
            </g>
</svg>