<svg preserveAspectRatio="xMidYMid meet" data-bbox="0 0.026 1138.25 202.503" viewBox="0 0.026 1138.25 202.503" xmlns="http://www.w3.org/2000/svg" data-type="color" role="img" aria-label="Seedorina Logo"><defs><style>#comp-kbgakxea_r_comp-m241unx0 svg [data-color="1"] {fill: #007995;}</style></defs>
    <g>
        <path d="M175.87 32.34a7.1 7.1 0 0 0-5.68-5.67A143.86 143.86 0 0 0 2.43 194.43a7.07 7.07 0 0 0 5.67 5.67A143.87 143.87 0 0 0 178.3 58.76a144.65 144.65 0 0 0-2.43-26.42Zm-32.1 36.45L44.55 168a7.09 7.09 0 1 1-10-10l99.22-99.21a7.08 7.08 0 0 1 10 0 7.1 7.1 0 0 1 0 10Z" fill="#007995" data-color="1"></path>
        <path d="M506.34 53.4c-33.06 0-50.79 16.64-50.79 47.29v25.83c0 28.67 16.2 46.84 50.35 46.84q28 0 41.74-13.9l4.7-4.69a5.68 5.68 0 0 0 0-8l-9.34-9.4a5.68 5.68 0 0 0-8 0l-6.26 6.26c-5.17 5.19-12.72 7.84-22.78 7.84-16 0-25-7.66-25-21.89v-8.1h66.11c6.57 0 9.85-3.06 9.85-9.41V98.72c-.02-26.49-17.31-45.32-50.58-45.32Zm25.17 48.6h-50.57v-4.81c0-14.23 9-22.33 25.4-22.33 16.63 0 25.17 8.1 25.17 22.33Z" fill="#007995" data-color="1"></path>
        <path d="M571.83 99.15c0-29.77 15.32-45.75 45.75-45.75a147.93 147.93 0 0 1 26 2.85v-33a11.31 11.31 0 0 1 3.32-8l13.89-13.83A4.82 4.82 0 0 1 669 4.83v149.49c0 7-1.75 9.19-8.76 12a117.17 117.17 0 0 1-40.93 7c-31.74 0-47.5-14.66-47.5-44.22Zm71.8-19.7a99.61 99.61 0 0 0-21.24-2.84c-16.85 0-25.17 7.66-25.17 23.2v28.46c0 14.67 8.1 21.89 24.52 21.89a78.27 78.27 0 0 0 20.14-2.41 2.57 2.57 0 0 0 1.75-2.41Z" fill="#007995" data-color="1"></path>
        <path d="M687.18 97.19c0-27.37 18.17-43.79 50.35-43.79 32.4 0 50.57 16.42 50.57 43.79v32.39c0 27.37-18.17 43.78-50.57 43.78-32.18 0-50.35-16.41-50.35-43.78Zm75.52 0c0-13.36-9.19-20.8-25.17-20.8s-24.95 7.44-24.95 20.8v32.39c0 13.14 9 20.8 24.95 20.8s25.17-7.66 25.17-20.8Z" fill="#007995" data-color="1"></path>
        <path d="M862.52 53.4c5 0 6.79 1.54 6.79 6.79v9.63c0 5-1.75 6.79-6.79 6.79h-7.88a71.9 71.9 0 0 0-20.8 2.62 2.31 2.31 0 0 0-2.18 2.63v81.43c0 5-1.54 6.79-6.57 6.79h-12c-5 0-6.79-1.75-6.79-6.79V72.45c0-7 1.53-9.63 8.54-12.48q16.1-5.91 40.72-6.57Z" fill="#007995" data-color="1"></path>
        <path d="M898.79 11.34h-6.69a10.5 10.5 0 0 0-10.5 10.49v23a4.82 4.82 0 0 0 8.23 3.41l16.11-16.12a13.56 13.56 0 0 0 3.9-9.53v-.15a11.05 11.05 0 0 0-11.05-11.1Z" fill="#007995" data-color="1"></path>
        <path d="M901.74 56.69h-12c-5 0-6.56 1.53-6.56 6.57v100c0 5 1.53 6.79 6.56 6.79h12c5 0 6.79-1.75 6.79-6.79v-100c0-5.04-1.75-6.57-6.79-6.57Z" fill="#007995" data-color="1"></path>
        <path d="M980.85 53.4c30.65 0 45.53 15.77 45.53 44v65.89c0 5-1.75 6.79-6.78 6.79h-12c-5 0-6.57-1.75-6.57-6.79V98.06c0-14.23-7.88-21.45-23.86-21.45a77.18 77.18 0 0 0-21 2.84 2.12 2.12 0 0 0-1.53 2.19v81.65c0 5-1.53 6.79-6.57 6.79H936c-5 0-6.79-1.75-6.79-6.79v-90c0-7 1.53-9.63 8.54-12.47 12.45-5.01 26.68-7.42 43.1-7.42Z" fill="#007995" data-color="1"></path>
        <path d="M281.67 101.56c-19.05-1.75-25.62-3.94-25.62-13.57 0-7.88 6.79-11.82 20.58-11.82 8.93 0 15.65 2.2 20.17 6.71l5.2 5.18a5.66 5.66 0 0 0 8 0l9.5-9.49a5.68 5.68 0 0 0 0-8l-4.05-4c-8.76-8.7-22-13.1-39.48-13.1-29.55 0-45.09 13.58-45.09 35.25 0 11.16 3.94 19.48 9.19 24.08a31.14 31.14 0 0 0 10.29 5.91c8.54 3.28 14.45 4.16 24.74 5.25 19.48 2 26.27 4.38 26.27 14 0 8.54-7.67 12.92-23.21 12.92-9.7 0-16.77-2.15-21.13-6.54l-7-7a5.68 5.68 0 0 0-8 0l-9.09 9.1a5.65 5.65 0 0 0 0 8l5.38 5.39c8.92 8.91 22.38 13.58 40.75 13.58 30.43 0 47.28-14.44 47.28-36.55-.03-24.57-14.91-32.45-44.68-35.3Z" fill="#007995" data-color="1"></path>
        <path d="M390.26 53.4c-33.06 0-50.79 16.64-50.79 47.29v25.83c0 28.67 16.2 46.84 50.35 46.84q28 0 41.75-13.9l4.69-4.69a5.66 5.66 0 0 0 0-8l-9.38-9.38a5.68 5.68 0 0 0-8 0l-6.26 6.26c-5.17 5.19-12.72 7.84-22.78 7.84-16 0-24.95-7.66-24.95-21.89v-8.1H431c6.56 0 9.85-3.06 9.85-9.41V98.72c-.02-26.49-17.32-45.32-50.59-45.32Zm25.17 48.6h-50.56v-4.81c0-14.23 9-22.33 25.39-22.33 16.64 0 25.17 8.1 25.17 22.33Z" fill="#007995" data-color="1"></path>
        <path d="M1091.35 53.4c-16.87 0-29.62 4.38-38.24 13l-5.39 5.39a5.67 5.67 0 0 0 0 8l9.08 9.08a5.67 5.67 0 0 0 8 0l6-6q7-7 20.15-7c15.76 0 21.89 7.44 21.89 21.67v6.13c-12.48-.65-19.48-1.09-21-1.09-35.68 0-49.69 9.19-49.69 35.24 0 12 3.51 21 10.51 26.71 7 5.91 19.7 8.75 38.31 8.75 17.51 0 30.65-2 39.4-5.69 6.13-2.63 7.88-4.81 7.88-12.48V98.5c-.06-29.99-15.6-45.1-46.9-45.1Zm21.45 94.13c0 1.53-.88 2.41-2.41 3.07a111.45 111.45 0 0 1-21.89 1.75c-16 0-20.58-4.82-20.58-14.67 0-9.63 5.26-14.23 21-14.23.66 0 8.54.44 23.86 1.1Z" fill="#007995" data-color="1"></path>
    </g>
</svg>